<svg width="455" height="373" viewBox="0 0 455 373" fill="none" xmlns="http://www.w3.org/2000/svg">
<g clip-path="url(#clip0_17_2278)">
<path d="M112.307 340.352L113.233 359.854L113.233 359.855C113.389 363.151 112.229 366.374 110.008 368.815C107.788 371.256 104.688 372.716 101.391 372.872L100.987 372.891L99.4717 340.96L112.307 340.352Z" fill="#2F2E41"/>
<path d="M389.649 307.394C380.359 325.521 368.574 343.051 353.664 358.918C353.333 359.276 352.998 359.625 352.661 359.98L317.334 343.26C317.55 342.902 317.787 342.499 318.042 342.058C333.217 316.1 424.821 157.757 421.926 121.894C422.264 124.852 433.122 222.669 389.649 307.394Z" fill="#E6E6E6"/>
<path d="M360.479 362.143C359.985 362.424 359.478 362.7 358.967 362.965L332.466 350.423C332.836 350.16 333.268 349.849 333.764 349.5C341.883 343.672 366.026 326.186 389.649 307.394C415.036 287.2 439.828 265.502 443.51 255.145C442.762 257.52 419.526 329.714 360.479 362.143Z" fill="#E6E6E6"/>
<path d="M44.0834 372.112C66.6713 372.112 84.9823 353.806 84.9823 331.224C84.9823 308.642 66.6713 290.335 44.0834 290.335C21.4956 290.335 3.18457 308.642 3.18457 331.224C3.18457 353.806 21.4956 372.112 44.0834 372.112Z" fill="#02590F"/>
<path d="M60.4666 314.065H27.7011C26.2533 314.067 24.8653 314.643 23.8415 315.666C22.8177 316.69 22.2419 318.077 22.2402 319.525V342.923C22.2419 344.37 22.8177 345.758 23.8415 346.781C24.8653 347.805 26.2533 348.381 27.7011 348.382H60.4666C61.9145 348.381 63.3026 347.805 64.3263 346.781C65.3501 345.758 65.926 344.37 65.9276 342.923V319.525C65.926 318.077 65.3501 316.69 64.3263 315.666C63.3025 314.643 61.9144 314.067 60.4666 314.065ZM60.4666 317.185C60.6622 317.186 60.857 317.211 61.0462 317.261L44.0877 330.785L27.2283 317.233C27.3838 317.201 27.5423 317.185 27.7011 317.185H60.4666ZM60.4666 345.263H27.7011C27.0807 345.262 26.4858 345.015 26.047 344.576C25.6083 344.138 25.3615 343.543 25.3608 342.923V319.735L43.1063 333.999C43.3826 334.221 43.7264 334.343 44.0809 334.343C44.4355 334.344 44.7797 334.224 45.0569 334.003L62.8071 319.847V342.923C62.8064 343.543 62.5595 344.138 62.1208 344.576C61.682 345.015 61.0871 345.262 60.4666 345.263Z" fill="white"/>
<path d="M201.922 272.191L211.073 272.266C211.999 272.274 212.916 272.08 213.759 271.697C214.602 271.314 215.351 270.752 215.955 270.05C216.558 269.347 217.001 268.522 217.253 267.631C217.504 266.74 217.559 265.805 217.412 264.891C217.253 263.907 216.867 262.975 216.282 262.168C215.697 261.361 214.931 260.702 214.046 260.245C213.16 259.788 212.18 259.545 211.183 259.536C210.187 259.527 209.202 259.752 208.308 260.193L199.678 264.451L170.161 271.031L157.516 258.106L150.252 270.066L167.316 283.247L201.922 272.191Z" fill="#FFB8B8"/>
<path d="M200.207 366.715L189.425 368.788C182.061 345.579 174.081 323.6 174.082 306.601C163.66 318.198 150.736 324.832 135.517 326.915L137.175 301.212L149.616 294.578L168.656 285.793C170.323 285.024 172.121 284.579 173.955 284.482C177.519 284.295 181.027 285.432 183.803 287.675C186.579 289.919 188.427 293.109 188.991 296.633L200.207 366.715Z" fill="#2F2E41"/>
<path d="M148.579 323.806L144.282 327.071C142.434 328.475 140.251 329.371 137.95 329.671C135.649 329.971 133.309 329.664 131.163 328.781C118.854 319.557 110.11 322.278 102.185 336.2C92.6791 325.474 90.3338 309.983 98.8176 293.956L145.884 294.993L155.422 292.091L148.579 323.806Z" fill="#2F2E41"/>
<path d="M132.904 371.839C130.207 372.669 127.304 372.523 124.704 371.428C122.104 370.333 119.972 368.358 118.682 365.849C114.452 362.124 110.883 356.791 107.788 350.307C105.567 345.55 103.66 340.652 102.079 335.646C99.9368 329.033 103.518 321.807 110.184 319.829C110.382 319.77 110.583 319.714 110.786 319.662C119.685 317.378 128.823 322.509 131.865 331.176L140.71 356.378C141.232 357.867 141.457 359.444 141.369 361.019C141.282 362.595 140.886 364.138 140.202 365.56C139.519 366.982 138.562 368.255 137.386 369.308C136.21 370.36 134.838 371.171 133.349 371.693C133.202 371.745 133.053 371.793 132.904 371.839Z" fill="#2F2E41"/>
<path opacity="0.2" d="M106.281 347.437C106.281 347.437 116.648 359.045 118.722 365.678L106.281 347.437Z" fill="black"/>
<path d="M66.0739 292.653L62.6042 301.12C62.2532 301.976 62.0932 302.899 62.1356 303.824C62.1779 304.749 62.4215 305.653 62.8494 306.474C63.2773 307.295 63.8792 308.013 64.6131 308.577C65.3469 309.142 66.1952 309.54 67.0986 309.743C68.0709 309.962 69.081 309.949 70.0475 309.706C71.0141 309.463 71.9101 308.997 72.6635 308.345C73.4169 307.693 74.0066 306.873 74.3852 305.951C74.7638 305.029 74.9207 304.032 74.8433 303.038L74.0957 293.446L78.9503 263.604L95.6516 256.669L87.243 245.483L68.6634 256.425L66.0739 292.653Z" fill="#FFB8B8"/>
<path d="M148.994 293.956C137.079 313.965 113.326 321.713 92.9826 306.045C96.5613 294.289 108.115 261.8 100.651 260.556C84.8028 267.201 84.7798 251.6 81.8154 243.793L117.893 230.526L137.383 235.916L141.378 237.333C143.978 238.255 146.233 239.952 147.84 242.194C149.447 244.436 150.329 247.116 150.367 249.874C142.18 261.699 136.119 274.313 148.994 293.956Z" fill="#02590F"/>
<path d="M153.556 277.788L139.249 265.972L144.018 238.403L163.508 259.132L153.556 277.788Z" fill="#02590F"/>
<path d="M390.945 88.3935H388.9V32.4042C388.9 23.8101 385.485 15.568 379.406 9.49098C373.328 3.41401 365.084 0 356.487 0H237.836C229.24 0 220.996 3.41401 214.917 9.49098C208.839 15.568 205.424 23.8101 205.424 32.4042V339.567C205.424 348.161 208.839 356.403 214.917 362.48C220.996 368.557 229.24 371.971 237.836 371.971H356.487C365.083 371.971 373.327 368.557 379.406 362.48C385.484 356.403 388.899 348.161 388.899 339.567V128.248H390.944L390.945 88.3935Z" fill="#3F3D56"/>
<path d="M357.795 8.4297H342.307C343.02 10.1756 343.292 12.0699 343.1 13.9457C342.907 15.8216 342.257 17.6213 341.205 19.1864C340.153 20.7515 338.732 22.0339 337.067 22.9206C335.402 23.8072 333.545 24.271 331.659 24.271H263.686C261.8 24.2708 259.943 23.807 258.279 22.9204C256.614 22.0337 255.194 20.7515 254.142 19.1866C253.09 17.6217 252.439 15.8223 252.246 13.9467C252.054 12.0711 252.326 10.177 253.038 8.43124H238.57C232.15 8.43124 225.994 10.9809 221.454 15.5192C216.915 20.0576 214.364 26.213 214.364 32.6312V339.341C214.364 345.76 216.915 351.915 221.454 356.453C225.994 360.992 232.15 363.541 238.57 363.541H357.791C364.21 363.541 370.367 360.992 374.907 356.453C379.446 351.915 381.997 345.76 381.997 339.341V32.6296C381.997 26.2114 379.446 20.0561 374.907 15.5177C370.367 10.9793 364.21 8.42969 357.791 8.42969L357.795 8.4297Z" fill="white"/>
<path d="M298.387 346.401C305.728 346.401 311.679 340.452 311.679 333.113C311.679 325.773 305.728 319.824 298.387 319.824C291.046 319.824 285.095 325.773 285.095 333.113C285.095 340.452 291.046 346.401 298.387 346.401Z" fill="#E6E6E6"/>
<path d="M244.463 210.218C243.207 210.218 242.185 211.385 242.185 212.818C242.185 214.252 243.207 215.419 244.463 215.419H351.896C353.152 215.419 354.175 214.252 354.175 212.818C354.175 211.385 353.152 210.218 351.896 210.218H244.463Z" fill="#E6E6E6"/>
<path d="M244.463 271.551C243.207 271.551 242.185 272.717 242.185 274.151C242.185 275.585 243.207 276.752 244.463 276.752H351.896C353.152 276.752 354.175 275.585 354.175 274.151C354.175 272.717 353.152 271.551 351.896 271.551H244.463Z" fill="#E6E6E6"/>
<path d="M244.463 225.821C243.207 225.821 242.185 226.987 242.185 228.421C242.185 229.855 243.207 231.021 244.463 231.021H290.692C291.948 231.021 292.971 229.855 292.971 228.421C292.971 226.987 291.948 225.821 290.692 225.821H244.463Z" fill="#E6E6E6"/>
<path d="M244.463 240.693C243.207 240.693 242.185 241.86 242.185 243.293C242.185 244.727 243.207 245.894 244.463 245.894H351.896C353.152 245.894 354.175 244.727 354.175 243.293C354.175 241.86 353.152 240.693 351.896 240.693H244.463Z" fill="#E6E6E6"/>
<path d="M244.463 256.296C243.207 256.296 242.185 257.462 242.185 258.896C242.185 260.33 243.207 261.497 244.463 261.497H290.692C291.948 261.497 292.971 260.33 292.971 258.896C292.971 257.462 291.948 256.296 290.692 256.296H244.463Z" fill="#E6E6E6"/>
<path d="M264.746 91.8088H331.622C332.361 91.8097 333.069 92.1035 333.591 92.6258C334.114 93.148 334.408 93.8561 334.409 94.5946V164.226C334.408 164.965 334.114 165.673 333.591 166.195C333.069 166.718 332.361 167.011 331.622 167.012H264.746C264.007 167.011 263.298 166.718 262.776 166.195C262.254 165.673 261.96 164.965 261.959 164.226V94.5946C261.96 93.8561 262.254 93.148 262.776 92.6257C263.298 92.1035 264.007 91.8097 264.746 91.8088Z" fill="#02590F"/>
<path d="M317.372 152.653C317.62 152.654 317.867 152.605 318.097 152.51C318.327 152.415 318.536 152.276 318.712 152.101C318.888 151.925 319.027 151.717 319.123 151.487C319.218 151.257 319.267 151.011 319.267 150.763C319.268 150.514 319.219 150.268 319.123 150.038C319.028 149.808 318.889 149.6 318.713 149.424C318.537 149.248 318.328 149.109 318.098 149.014C317.869 148.919 317.622 148.87 317.374 148.87H278.995C278.747 148.87 278.5 148.918 278.27 149.013C278.04 149.108 277.832 149.247 277.655 149.423C277.479 149.598 277.34 149.807 277.244 150.036C277.149 150.266 277.1 150.512 277.1 150.761C277.099 151.009 277.148 151.256 277.244 151.485C277.339 151.715 277.478 151.924 277.654 152.099C277.83 152.275 278.039 152.415 278.269 152.51C278.498 152.605 278.745 152.653 278.993 152.653H317.372Z" fill="white"/>
<path d="M317.372 141.51C317.873 141.51 318.355 141.31 318.709 140.956C319.064 140.601 319.263 140.12 319.263 139.618C319.263 139.117 319.064 138.636 318.709 138.281C318.355 137.926 317.873 137.727 317.372 137.727H278.995C278.494 137.727 278.012 137.926 277.657 138.28C277.302 138.635 277.103 139.116 277.103 139.617C277.102 140.119 277.301 140.6 277.656 140.955C278.011 141.31 278.492 141.509 278.993 141.51H317.372Z" fill="white"/>
<path d="M298.183 106.168C300.539 106.168 302.841 106.866 304.799 108.175C306.757 109.483 308.284 111.342 309.185 113.517C310.086 115.693 310.322 118.086 309.863 120.396C309.403 122.705 308.269 124.826 306.604 126.491C304.938 128.156 302.816 129.29 300.507 129.749C298.197 130.209 295.802 129.973 293.626 129.072C291.451 128.171 289.591 126.645 288.282 124.687C286.974 122.73 286.275 120.428 286.275 118.073C286.279 114.917 287.535 111.891 289.767 109.659C292 107.427 295.026 106.172 298.183 106.168Z" fill="white"/>
<path d="M146.246 226.917H110.894C110.167 226.916 109.47 226.627 108.956 226.113C108.441 225.599 108.152 224.902 108.151 224.175V208.941C108.151 203.526 110.303 198.334 114.132 194.506C117.961 190.678 123.155 188.527 128.57 188.527C133.986 188.527 139.179 190.678 143.008 194.506C146.838 198.334 148.989 203.526 148.989 208.941V224.175C148.988 224.902 148.699 225.599 148.185 226.113C147.67 226.627 146.973 226.916 146.246 226.917Z" fill="#2F2E41"/>
<path d="M145.609 218.211C149.575 210.958 146.909 201.865 139.654 197.9C132.4 193.935 123.304 196.601 119.338 203.854C115.372 211.106 118.038 220.2 125.293 224.165C132.548 228.13 141.644 225.464 145.609 218.211Z" fill="#FFB6B6"/>
<path d="M153.82 210.464H132.203L131.981 207.361L130.873 210.464H127.544L127.105 204.314L124.908 210.464H118.468V210.159C118.473 205.878 120.176 201.773 123.204 198.746C126.232 195.719 130.337 194.016 134.62 194.011H137.667C141.95 194.016 146.055 195.719 149.083 198.746C152.112 201.773 153.815 205.878 153.82 210.159V210.464Z" fill="#2F2E41"/>
<path d="M132.026 229.76C131.863 229.76 131.701 229.746 131.541 229.718L115.712 226.925V200.772H133.136L132.705 201.275C126.703 208.273 131.225 219.62 134.454 225.762C134.692 226.211 134.799 226.719 134.761 227.227C134.723 227.734 134.542 228.22 134.24 228.63C133.986 228.98 133.654 229.265 133.269 229.461C132.884 229.658 132.458 229.76 132.026 229.76Z" fill="#2F2E41"/>
<path d="M184.727 358.887L204.256 358.886H204.256C207.557 358.887 210.723 360.198 213.057 362.531C215.39 364.864 216.702 368.029 216.702 371.329V371.733L184.727 371.734L184.727 358.887Z" fill="#2F2E41"/>
<path d="M454.489 373H0.511236C0.375648 373 0.245612 372.946 0.149737 372.85C0.0538618 372.754 0 372.624 0 372.489C0 372.353 0.0538618 372.223 0.149737 372.127C0.245612 372.032 0.375648 371.978 0.511236 371.978H454.489C454.624 371.978 454.754 372.032 454.85 372.127C454.946 372.223 455 372.353 455 372.489C455 372.624 454.946 372.754 454.85 372.85C454.754 372.946 454.624 373 454.489 373Z" fill="#CACACA"/>
</g>
<defs>
<clipPath id="clip0_17_2278">
<rect width="455" height="373" fill="white"/>
</clipPath>
</defs>
</svg>