<svg width="120" height="120" viewBox="0 0 120 120" fill="none" xmlns="http://www.w3.org/2000/svg">
<path d="M55.5 95H64.25V88.75C68.4167 88 72 86.375 75 83.875C78 81.375 79.5 77.6667 79.5 72.75C79.5 69.25 78.5 66.0417 76.5 63.125C74.5 60.2083 70.5 57.6667 64.5 55.5C59.5 53.8333 56.0417 52.375 54.125 51.125C52.2083 49.875 51.25 48.1667 51.25 46C51.25 43.8333 52.0217 42.125 53.565 40.875C55.1083 39.625 57.3367 39 60.25 39C62.9167 39 65 39.645 66.5 40.935C68 42.225 69.0833 43.83 69.75 45.75L77.75 42.5C76.8333 39.5833 75.1467 37.0417 72.69 34.875C70.2333 32.7083 67.5033 31.5 64.5 31.25V25H55.75V31.25C51.5833 32.1667 48.3333 34 46 36.75C43.6667 39.5 42.5 42.5833 42.5 46C42.5 49.9167 43.6467 53.0833 45.94 55.5C48.2333 57.9167 51.8367 60 56.75 61.75C62 63.6667 65.6467 65.375 67.69 66.875C69.7333 68.375 70.7533 70.3333 70.75 72.75C70.75 75.5 69.7717 77.5217 67.815 78.815C65.8583 80.1083 63.5033 80.7533 60.75 80.75C57.9967 80.7467 55.5583 79.8933 53.435 78.19C51.3117 76.4867 49.75 73.9233 48.75 70.5L40.5 73.75C41.6667 77.75 43.48 80.98 45.94 83.44C48.4 85.9 51.5867 87.5867 55.5 88.5V95ZM60 110C53.0833 110 46.5833 108.687 40.5 106.06C34.4167 103.433 29.125 99.8717 24.625 95.375C20.125 90.8783 16.5633 85.5867 13.94 79.5C11.3167 73.4133 10.0033 66.9133 10 60C9.99667 53.0867 11.31 46.5867 13.94 40.5C16.57 34.4133 20.1317 29.1217 24.625 24.625C29.1183 20.1283 34.41 16.5667 40.5 13.94C46.59 11.3133 53.09 10 60 10C66.91 10 73.41 11.3133 79.5 13.94C85.59 16.5667 90.8817 20.1283 95.375 24.625C99.8683 29.1217 103.432 34.4133 106.065 40.5C108.698 46.5867 110.01 53.0867 110 60C109.99 66.9133 108.677 73.4133 106.06 79.5C103.443 85.5867 99.8817 90.8783 95.375 95.375C90.8683 99.8717 85.5767 103.435 79.5 106.065C73.4233 108.695 66.9233 110.007 60 110ZM60 100C71.1667 100 80.625 96.125 88.375 88.375C96.125 80.625 100 71.1667 100 60C100 48.8333 96.125 39.375 88.375 31.625C80.625 23.875 71.1667 20 60 20C48.8333 20 39.375 23.875 31.625 31.625C23.875 39.375 20 48.8333 20 60C20 71.1667 23.875 80.625 31.625 88.375C39.375 96.125 48.8333 100 60 100Z" fill="url(#paint0_diamond_17_2226)" fill-opacity="0.99"/>
<defs>
<radialGradient id="paint0_diamond_17_2226" cx="0" cy="0" r="1" gradientUnits="userSpaceOnUse" gradientTransform="translate(60 60) rotate(90) scale(50 50)">
<stop stop-color="white"/>
<stop offset="1" stop-color="#FFEA00"/>
</radialGradient>
</defs>
</svg>