<svg width="120" height="120" viewBox="0 0 120 120" fill="none" xmlns="http://www.w3.org/2000/svg">
<path fill-rule="evenodd" clip-rule="evenodd" d="M18.375 50.7H90.3C91.2 50.7 92.025 51.075 92.7 51.75L104.1 63.45C106.2 65.625 104.7 69.3 101.7 69.3H29.775C28.875 69.3 28.05 68.925 27.375 68.25L15.975 56.55C13.875 54.375 15.375 50.7 18.375 50.7ZM15.975 35.175L27.375 23.475C27.975 22.8 28.875 22.425 29.775 22.425H101.625C104.625 22.425 106.125 26.1 104.025 28.275L92.7 39.975C92.1 40.65 91.2 41.025 90.3 41.025H18.375C15.375 41.025 13.875 37.35 15.975 35.175ZM104.025 84.75L92.625 96.45C91.95 97.125 91.125 97.5 90.225 97.5H18.375C15.375 97.5 13.875 93.825 15.975 91.65L27.375 79.95C27.975 79.275 28.875 78.9 29.775 78.9H101.625C104.625 78.9 106.125 82.575 104.025 84.75Z" fill="url(#paint0_diamond_17_2228)"/>
<defs>
<radialGradient id="paint0_diamond_17_2228" cx="0" cy="0" r="1" gradientUnits="userSpaceOnUse" gradientTransform="translate(60.0375 59.9625) rotate(90) scale(37.5375 45.0414)">
<stop stop-color="white"/>
<stop offset="0.65" stop-color="#9747FF"/>
</radialGradient>
</defs>
</svg>