<svg width="120" height="120" viewBox="0 0 120 120" fill="none" xmlns="http://www.w3.org/2000/svg">
<path d="M76.5 83.5L83.5 76.5L65 58V35H55V62L76.5 83.5ZM60 110C53.0833 110 46.5833 108.687 40.5 106.06C34.4167 103.433 29.125 99.8717 24.625 95.375C20.125 90.8783 16.5633 85.5867 13.94 79.5C11.3167 73.4133 10.0033 66.9133 10 60C9.99667 53.0867 11.31 46.5867 13.94 40.5C16.57 34.4133 20.1317 29.1217 24.625 24.625C29.1183 20.1283 34.41 16.5667 40.5 13.94C46.59 11.3133 53.09 10 60 10C66.91 10 73.41 11.3133 79.5 13.94C85.59 16.5667 90.8817 20.1283 95.375 24.625C99.8683 29.1217 103.432 34.4133 106.065 40.5C108.698 46.5867 110.01 53.0867 110 60C109.99 66.9133 108.677 73.4133 106.06 79.5C103.443 85.5867 99.8817 90.8783 95.375 95.375C90.8683 99.8717 85.5767 103.435 79.5 106.065C73.4233 108.695 66.9233 110.007 60 110ZM60 100C71.0833 100 80.5217 96.105 88.315 88.315C96.1083 80.525 100.003 71.0867 100 60C99.9967 48.9133 96.1017 39.475 88.315 31.685C80.5283 23.895 71.09 20 60 20C48.91 20 39.4717 23.8967 31.685 31.69C23.8983 39.4833 20.0033 48.92 20 60C19.9967 71.08 23.8933 80.5183 31.69 88.315C39.4867 96.1117 48.9233 100.007 60 100Z" fill="url(#paint0_diamond_17_2224)"/>
<defs>
<radialGradient id="paint0_diamond_17_2224" cx="0" cy="0" r="1" gradientUnits="userSpaceOnUse" gradientTransform="translate(60 60) rotate(90) scale(50 50)">
<stop stop-color="white"/>
<stop offset="1" stop-color="#00FF26"/>
</radialGradient>
</defs>
</svg>